# xmcd
#
# Track frame offsets: 
#        150
#        13355
#        27277
#        45460
#        59497
#        75130
#        94780
#        107710
#        121617
#        134885
#        152505
#        169747
#
# Disc length: 2507 seconds
#
# Revision: 2
# Processed by: cddbd v1.5.2PL0 Copyright (c) Steve Scherf et al.
# Submitted via: ExactAudioCopy v0.95b4
#
DISCID=9109c90c
DTITLE=Chris Gaffney - Loser's Paradise
DYEAR=1900
DGENRE=Rock
TTITLE0=The Eyes Of Roberto Duran
TTITLE1=Loser's Paradise
TTITLE2=The Man Of Somebody's Dream
TTITLE3=So Far From God ( And Too Close You)
TTITLE4=East Of Houston, West Of Baton Rouge
TTITLE5=Cowboys To Girls
TTITLE6=Azulito
TTITLE7=My Baby's Got A Dead Man's Number
TTITLE8=See the Big Man Cry
TTITLE9=Help You Dream
TTITLE10=Glasshouse
TTITLE11=Sugar Bee
EXTD=
EXTT0=
EXTT1=
EXTT2=
EXTT3=
EXTT4=
EXTT5=
EXTT6=
EXTT7=
EXTT8=
EXTT9=
EXTT10=
EXTT11=
PLAYORDER=
